# xmcd CD database file
#
# Track frame offsets:
#	150
#	30597
#	59495
#	89097
#	119827
#	158630
#	192477
#	218695
#	243557
#	261820
#	291317
#	320040
#
# Disc length: 4540 seconds
#
# Revision: 0
# Processed by: cddbd v1.5.1PL2 Copyright (c) Steve Scherf et al.
# Submitted via: CDex 1.51
#
DISCID=be11ba0c
DTITLE=Sune Spangberg - Live At Cafe Agueli, Sune Spangberg Trios and Guests
DYEAR=1999
DGENRE=Jazz
TTITLE0='Round Midnight
TTITLE1=Little Melonae
TTITLE2=Where Or When
TTITLE3=What Is This Thing Called Love
TTITLE4=Lover Man
TTITLE5=You Don't Know What Love Is
TTITLE6=You Must Believe In Spring
TTITLE7=My Old Flame
TTITLE8=My Funny Valentine
TTITLE9=Cherokee
TTITLE10=I Can't Get Started
TTITLE11=Waiting
EXTD=YEAR: 1999
EXTT0=
EXTT1=
EXTT2=
EXTT3=
EXTT4=
EXTT5=
EXTT6=
EXTT7=
EXTT8=
EXTT9=
EXTT10=
EXTT11=
PLAYORDER=
